<svg aria-hidden="true" style="position: absolute; width: 0; height: 0; overflow: hidden;" version="1.1" xmlns="http://www.w3.org/2000/svg" xmlns:xlink="http://www.w3.org/1999/xlink">
<defs>
<symbol id="logo__icon" viewBox="0 0 35 32">
<path fill="#5cbefe" style="fill: var(--color1, #5cbefe)" d="M21.714 32c3.51 0 6.382-2.872 6.382-6.382v-14.933c0-4.615-2.346-6.402-6.382-6.382-1.721 0.008-6.961 5.456-12.040 10.614-3.734 3.792-7.511 7.208-9.084 9.308-1.378 1.839-0.689 7.776 5.851 7.776l15.273-0z"></path>
<path fill="#ef5579" style="fill: var(--color2, #ef5579)" d="M13.074 0c-3.51 0-6.382 2.872-6.382 6.382v14.933c0 4.615 2.346 6.402 6.382 6.382 1.721-0.008 6.96-5.456 12.040-10.614 3.734-3.792 7.511-7.208 9.084-9.308 1.378-1.839 0.689-7.776-5.851-7.776l-15.273 0z"></path>
<path fill="#545db6" style="fill: var(--color3, #545db6)" d="M28.096 14.121v-3.437c0-4.615-2.346-6.402-6.382-6.382-1.721 0.008-6.96 5.456-12.040 10.614-1.005 1.021-2.014 2.015-2.982 2.963v3.437c0 4.615 2.346 6.402 6.382 6.382 1.721-0.008 6.96-5.456 12.040-10.614 1.005-1.021 2.014-2.015 2.982-2.963z"></path>
</symbol>

<symbol id="form__svg" viewBox="0 0 32 32">
<path fill="#fff" style="fill: var(--color1, #fff)" d="M0 0h32v32h-32v-32z"></path>
<path fill="#ebebeb" style="fill: var(--color2, #ebebeb)" d="M18.145 6.138h-2.888v3.646h2.888v-3.646z"></path>
<path fill="#e0e0e0" style="fill: var(--color3, #e0e0e0)" d="M16.919 9.702h-0.401v0.097h0.401v-0.097z"></path>
<path fill="#e0e0e0" style="fill: var(--color3, #e0e0e0)" d="M16.793 7.393l-0.532 0.078-0.198 0.5 0.333 0.422 0.532-0.078 0.198-0.5-0.333-0.422z"></path>
<path fill="#fafafa" style="fill: var(--color4, #fafafa)" d="M17.042 7.716l-0.532 0.078-0.199 0.499 0.333 0.422 0.532-0.078 0.198-0.5-0.333-0.422z"></path>
<path fill="#e0e0e0" style="fill: var(--color3, #e0e0e0)" d="M16.976 6.088h-0.401v0.083h0.401v-0.083z"></path>
<path fill="#f5f5f5" style="fill: var(--color5, #f5f5f5)" d="M21.8 7.614h-1.962v4.2h1.962v-4.2z"></path>
<path fill="#f5f5f5" style="fill: var(--color5, #f5f5f5)" d="M24.292 12.108h-2.411v4.058h2.411v-4.058z"></path>
<path fill="#f5f5f5" style="fill: var(--color5, #f5f5f5)" d="M24.585 7.542h2.289v-3.725h0.081v3.725h2.119v-3.808h-4.49v3.808z"></path>
<path fill="#f5f5f5" style="fill: var(--color5, #f5f5f5)" d="M21.8 12.108h-1.962v4.058h1.962v-4.058z"></path>
<path fill="#f5f5f5" style="fill: var(--color5, #f5f5f5)" d="M29.074 12.108h-2.118v4.058h2.118v-4.058z"></path>
<path fill="#f5f5f5" style="fill: var(--color5, #f5f5f5)" d="M24.292 7.614h-2.411v4.2h2.411v-4.2z"></path>
<path fill="#f5f5f5" style="fill: var(--color5, #f5f5f5)" d="M29.074 7.614h-2.118v4.2h2.118v-4.2z"></path>
<path fill="#f5f5f5" style="fill: var(--color5, #f5f5f5)" d="M21.8 16.238h-1.962v3.656h1.962v-3.656z"></path>
<path fill="#f5f5f5" style="fill: var(--color5, #f5f5f5)" d="M21.799 7.542v-3.725h0.082v3.725h2.411v-3.808h-4.454v3.808h1.962z"></path>
<path fill="#f5f5f5" style="fill: var(--color5, #f5f5f5)" d="M24.292 16.238h-2.411v3.656h2.411v-3.656z"></path>
<path fill="#f5f5f5" style="fill: var(--color5, #f5f5f5)" d="M29.074 16.238h-2.118v3.656h2.118v-3.656z"></path>
<path fill="#f5f5f5" style="fill: var(--color5, #f5f5f5)" d="M26.874 7.614h-2.289v4.2h2.289v-4.2z"></path>
<path fill="#f5f5f5" style="fill: var(--color5, #f5f5f5)" d="M26.874 16.238h-2.289v3.656h2.289v-3.656z"></path>
<path fill="#f5f5f5" style="fill: var(--color5, #f5f5f5)" d="M26.874 12.108h-2.289v4.058h2.289v-4.058z"></path>
<path fill="#f5f5f5" style="fill: var(--color5, #f5f5f5)" d="M6.621 7.614h-1.962v4.2h1.962v-4.2z"></path>
<path fill="#f5f5f5" style="fill: var(--color5, #f5f5f5)" d="M9.114 12.108h-2.411v4.058h2.411v-4.058z"></path>
<path fill="#f5f5f5" style="fill: var(--color5, #f5f5f5)" d="M9.407 7.542h2.289v-3.725h0.082v3.725h2.118v-3.808h-4.49v3.808z"></path>
<path fill="#f5f5f5" style="fill: var(--color5, #f5f5f5)" d="M6.621 12.108h-1.962v4.058h1.962v-4.058z"></path>
<path fill="#f5f5f5" style="fill: var(--color5, #f5f5f5)" d="M13.896 12.108h-2.118v4.058h2.118v-4.058z"></path>
<path fill="#f5f5f5" style="fill: var(--color5, #f5f5f5)" d="M9.114 7.614h-2.411v4.2h2.411v-4.2z"></path>
<path fill="#f5f5f5" style="fill: var(--color5, #f5f5f5)" d="M13.896 7.614h-2.118v4.2h2.118v-4.2z"></path>
<path fill="#f5f5f5" style="fill: var(--color5, #f5f5f5)" d="M6.621 16.238h-1.962v3.656h1.962v-3.656z"></path>
<path fill="#f5f5f5" style="fill: var(--color5, #f5f5f5)" d="M6.621 7.542v-3.725h0.081v3.725h2.411v-3.808h-4.454v3.808h1.962z"></path>
<path fill="#f5f5f5" style="fill: var(--color5, #f5f5f5)" d="M9.114 16.238h-2.411v3.656h2.411v-3.656z"></path>
<path fill="#f5f5f5" style="fill: var(--color5, #f5f5f5)" d="M13.896 16.238h-2.118v3.656h2.118v-3.656z"></path>
<path fill="#f5f5f5" style="fill: var(--color5, #f5f5f5)" d="M11.696 7.614h-2.289v4.2h2.289v-4.2z"></path>
<path fill="#f5f5f5" style="fill: var(--color5, #f5f5f5)" d="M11.696 16.238h-2.289v3.656h2.289v-3.656z"></path>
<path fill="#f5f5f5" style="fill: var(--color5, #f5f5f5)" d="M11.696 12.108h-2.289v4.058h2.289v-4.058z"></path>
<path fill="#ebebeb" style="fill: var(--color2, #ebebeb)" d="M24.465 26.369v1.881h5.784v-1.881h-5.784z"></path>
<path fill="#e0e0e0" style="fill: var(--color3, #e0e0e0)" d="M24.223 25.843v0.526h6.229v-0.526h-6.229z"></path>
<path fill="#e0e0e0" style="fill: var(--color3, #e0e0e0)" d="M27.338 28.25h2.912v-1.881h0.202v-0.526h-3.236v0.477l0.122 1.93z"></path>
<path fill="#e0e0e0" style="fill: var(--color3, #e0e0e0)" d="M26.448 26.673h-1.173v0.283h1.173v-0.283z"></path>
<path fill="#f5f5f5" style="fill: var(--color5, #f5f5f5)" d="M26.63 27.309h-1.507v0.598h1.507v-0.598z"></path>
<path fill="#ebebeb" style="fill: var(--color2, #ebebeb)" d="M25.894 23.766l-0.008-0.707 2.477 0.212 0.077 0.7-2.547-0.205z"></path>
<path fill="#e0e0e0" style="fill: var(--color3, #e0e0e0)" d="M26.429 23.381l-0.011 0.127 1.55 0.133 0.011-0.127-1.55-0.133z"></path>
<path fill="#e0e0e0" style="fill: var(--color3, #e0e0e0)" d="M25.599 23.095l-0.001-0.707 2.476 0.239 0.063 0.632-2.537-0.164z"></path>
<path fill="#fff" style="fill: var(--color1, #fff)" d="M25.599 22.484l-0.001 0.477 2.412 0.178-0.040-0.44-2.37-0.214z"></path>
<path fill="#f5f5f5" style="fill: var(--color5, #f5f5f5)" d="M27.826 22.883c-0.029 0.003-0.059 0.003-0.088 0l-0.237-0.019c-0.2-0.017-0.476-0.043-0.781-0.074s-0.58-0.061-0.78-0.084l-0.236-0.029c-0.029-0.002-0.058-0.007-0.086-0.015 0.029-0.003 0.058-0.003 0.087 0l0.237 0.019c0.2 0.017 0.477 0.044 0.781 0.074s0.581 0.060 0.781 0.084l0.236 0.029c0.029 0.002 0.058 0.007 0.086 0.015z"></path>
<path fill="#f5f5f5" style="fill: var(--color5, #f5f5f5)" d="M27.821 22.942c-0.029 0.003-0.058 0.003-0.088 0l-0.24-0.012c-0.202-0.011-0.481-0.028-0.788-0.050s-0.587-0.043-0.788-0.060l-0.238-0.022c-0.029-0.001-0.059-0.006-0.087-0.013 0.029-0.003 0.059-0.003 0.088 0l0.239 0.012c0.202 0.011 0.481 0.029 0.789 0.050s0.586 0.043 0.788 0.060l0.239 0.022c0.029 0.002 0.058 0.006 0.087 0.012z"></path>
<path fill="#e0e0e0" style="fill: var(--color3, #e0e0e0)" d="M25.923 24.419l-0.010-0.707 2.478 0.21 0.070 0.631-2.539-0.134z"></path>
<path fill="#f5f5f5" style="fill: var(--color5, #f5f5f5)" d="M26.196 24.433c-0.021-0.115-0.031-0.231-0.030-0.348-0.010-0.116-0.009-0.233 0.003-0.349 0.021 0.115 0.031 0.231 0.030 0.348 0.010 0.116 0.009 0.233-0.003 0.349z"></path>
<path fill="#f5f5f5" style="fill: var(--color5, #f5f5f5)" d="M26.289 23.744c0.019 0.115 0.027 0.231 0.024 0.348 0.008 0.116 0.005 0.233-0.009 0.348-0.020-0.115-0.028-0.231-0.024-0.348-0.008-0.116-0.005-0.233 0.009-0.348z"></path>
<path fill="#fff" style="fill: var(--color1, #fff)" d="M26.515 24.054c0.432 0.048 0.94 0.075 1.379 0.114l-1.379-0.114z"></path>
<path fill="#f5f5f5" style="fill: var(--color5, #f5f5f5)" d="M27.894 24.168c-0.068 0.004-0.136 0.002-0.203-0.005-0.128-0.006-0.298-0.017-0.488-0.031s-0.363-0.030-0.487-0.045c-0.068-0.004-0.135-0.015-0.201-0.032 0.068-0.002 0.136 0.001 0.203 0.009l0.488 0.035c0.192 0.014 0.363 0.028 0.488 0.042 0.068 0.004 0.135 0.013 0.201 0.028z"></path>
<path fill="#f5f5f5" style="fill: var(--color5, #f5f5f5)" d="M28.074 24.532c-0.021-0.104-0.032-0.21-0.032-0.316-0.011-0.106-0.011-0.214 0-0.32 0.022 0.104 0.032 0.21 0.032 0.316 0.012 0.106 0.012 0.214 0 0.32z"></path>
<path fill="#f5f5f5" style="fill: var(--color5, #f5f5f5)" d="M28.227 24.54c-0.043-0.209-0.065-0.421-0.064-0.634 0.027 0.103 0.043 0.209 0.048 0.316 0.016 0.105 0.022 0.212 0.016 0.319z"></path>
<path fill="#fff" style="fill: var(--color1, #fff)" d="M26.88 24.213c0.273 0.019 0.481 0.032 0.698 0.037l-0.698-0.037z"></path>
<path fill="#f5f5f5" style="fill: var(--color5, #f5f5f5)" d="M27.584 24.25c-0.233 0.010-0.467-0.003-0.698-0.037 0.116-0.011 0.234-0.011 0.35 0 0.117 0.001 0.234 0.014 0.348 0.037z"></path>
<path fill="#ebebeb" style="fill: var(--color2, #ebebeb)" d="M26.089 25.8l-0.046-0.706 2.485 0.079 0.104 0.627-2.543 0.001z"></path>
<path fill="#fff" style="fill: var(--color1, #fff)" d="M26.188 25.711l2.419-0.035-0.067-0.439-2.397-0.045 0.045 0.518z"></path>
<path fill="#f5f5f5" style="fill: var(--color5, #f5f5f5)" d="M26.157 25.108l-0.023-0.707 2.482 0.162 0.083 0.63-2.541-0.084z"></path>
<path fill="#e0e0e0" style="fill: var(--color3, #e0e0e0)" d="M26.682 24.709l-0.008 0.127 1.552 0.101 0.008-0.127-1.552-0.101z"></path>
<path fill="#ebebeb" style="fill: var(--color2, #ebebeb)" d="M28.564 25.418c-0.032 0.005-0.063 0.008-0.095 0.007l-0.256 0.006c-0.218 0.004-0.52 0.007-0.854 0.008s-0.635 0-0.854 0l-0.256-0.004c-0.032 0.001-0.063-0.001-0.095-0.006 0.031-0.005 0.063-0.008 0.095-0.007l0.256-0.006c0.218-0.004 0.52-0.006 0.854-0.008s0.635 0 0.854 0l0.259 0.004c0.031-0.001 0.062 0.001 0.092 0.006z"></path>
<path fill="#ebebeb" style="fill: var(--color2, #ebebeb)" d="M28.592 25.555c-0.032 0.005-0.063 0.007-0.095 0.005h-0.261c-0.22 0-0.524 0-0.86-0.007s-0.64-0.011-0.86-0.017l-0.26-0.009c-0.032 0.001-0.064-0.002-0.095-0.008 0.032-0.005 0.064-0.006 0.095-0.005h0.26c0.22 0 0.524 0 0.86 0.007s0.64 0.011 0.86 0.017l0.26 0.009c0.032 0 0.064 0.003 0.095 0.008z"></path>
<path fill="#343434" style="fill: var(--color6, #343434)" d="M29.771 28.25c0 0.010-6.166 0.017-13.77 0.017s-13.771-0.007-13.771-0.017c0-0.010 6.165-0.017 13.771-0.017s13.77 0.008 13.77 0.017z"></path>
<path fill="#ef5579" style="fill: var(--color7, #ef5579)" d="M4.352 20.304c-0.339 0.054-0.49 0.47-0.461 0.812s0.17 0.676 0.132 1.017c-0.047 0.433-0.375 0.799-0.413 1.233-0.045 0.512 0.32 0.966 0.425 1.468 0.052 0.245 0.045 0.502 0.136 0.735 0.077 0.198 0.221 0.363 0.407 0.467s0.402 0.14 0.611 0.103 0.399-0.146 0.538-0.308c0.138-0.162 0.216-0.366 0.22-0.579 0.007-0.393-0.235-0.764-0.205-1.155 0.022-0.29 0.192-0.564 0.155-0.852-0.044-0.343-0.361-0.586-0.473-0.913s-0.004-0.687-0.044-1.031c-0.069-0.616-0.413-1.046-1.029-0.996z"></path>
<path fill="#ef5579" style="fill: var(--color7, #ef5579)" d="M2.62 23.288c-0.060 0.571 0.196 1.243 0.489 1.736 0.298 0.497 0.746 0.885 1.28 1.11 0.060 0.025 0.134 0.045 0.184 0.005 0.018-0.020 0.031-0.043 0.039-0.068s0.011-0.052 0.008-0.078c0.004-0.606-0.189-1.197-0.549-1.685s-0.869-0.845-1.45-1.020z"></path>
<path fill="#343434" style="fill: var(--color6, #343434)" opacity="0.1" d="M2.62 23.288c-0.060 0.571 0.196 1.243 0.489 1.736 0.298 0.497 0.746 0.885 1.28 1.11 0.060 0.025 0.134 0.045 0.184 0.005 0.018-0.020 0.031-0.043 0.039-0.068s0.011-0.052 0.008-0.078c0.004-0.606-0.189-1.197-0.549-1.685s-0.869-0.845-1.45-1.020z"></path>
<path fill="#343434" style="fill: var(--color6, #343434)" d="M5.108 27.328c-0.007-0.010-0.012-0.020-0.017-0.031-0.010-0.025-0.024-0.056-0.040-0.093-0.035-0.082-0.086-0.199-0.151-0.344-0.128-0.288-0.324-0.68-0.567-1.098-0.209-0.355-0.435-0.7-0.678-1.033-0.093-0.128-0.171-0.23-0.225-0.3l-0.064-0.082c-0.014-0.019-0.021-0.029-0.020-0.029 0.009 0.008 0.017 0.016 0.025 0.026l0.064 0.077c0.058 0.068 0.138 0.168 0.234 0.294 0.249 0.33 0.479 0.674 0.688 1.030s0.395 0.726 0.56 1.105c0.064 0.145 0.111 0.264 0.141 0.348l0.035 0.096c0.006 0.011 0.011 0.022 0.015 0.034z"></path>
<path fill="#343434" style="fill: var(--color6, #343434)" d="M4.74 21.884c0.004 0.018 0.006 0.037 0.006 0.055 0.003 0.039 0.006 0.091 0.012 0.157 0.009 0.14 0.022 0.337 0.037 0.576 0.031 0.489 0.074 1.164 0.128 1.909s0.104 1.42 0.142 1.908c0.019 0.242 0.033 0.438 0.044 0.576 0.004 0.064 0.008 0.118 0.011 0.157 0.002 0.018 0.002 0.037 0 0.055-0.004-0.018-0.007-0.036-0.008-0.054-0.004-0.038-0.010-0.091-0.017-0.157-0.013-0.139-0.031-0.336-0.054-0.576-0.044-0.488-0.099-1.162-0.152-1.908s-0.090-1.414-0.117-1.906c-0.011-0.243-0.020-0.44-0.027-0.579 0-0.064-0.004-0.119-0.005-0.157-0.001-0.019-0.001-0.037 0-0.056z"></path>
<path fill="#455a64" style="fill: var(--color8, #455a64)" d="M4.215 26.514h1.43v1.050c0 0.182-0.072 0.356-0.201 0.485s-0.303 0.201-0.485 0.201c-0.176 0-0.345-0.067-0.473-0.188s-0.204-0.286-0.214-0.462l-0.058-1.087z"></path>
<path fill="#545db6" style="fill: var(--color9, #545db6)" d="M22.843 17.875c-0.080-0.059-0.178-0.087-0.276-0.079 0-0.054 0-0.086 0-0.086h-1.51c0 0-0.047 0.996 0.716 1.032 0.342 0.016 0.537-0.137 0.649-0.33 0.056 0.013 0.114 0.020 0.172 0.021 0.084 0.004 0.168-0.020 0.237-0.067 0.038-0.030 0.069-0.069 0.089-0.114s0.028-0.093 0.025-0.142c0.002-0.044-0.006-0.088-0.023-0.129s-0.044-0.077-0.077-0.106zM22.739 18.245c-0.064 0.048-0.18 0.041-0.256 0.028 0.038-0.106 0.063-0.216 0.074-0.328 0.066-0.008 0.133 0.008 0.189 0.044 0.016 0.015 0.029 0.034 0.037 0.055s0.011 0.043 0.009 0.066c0.003 0.025-0 0.051-0.009 0.075s-0.024 0.045-0.043 0.062z"></path>
<path fill="#343434" style="fill: var(--color6, #343434)" d="M22.123 17.618c0.008-0.011 0.012-0.024 0.013-0.038-0.002-0.019-0.009-0.038-0.021-0.053s-0.026-0.029-0.043-0.037c-0.025-0.012-0.052-0.022-0.080-0.028-0.035-0.008-0.068-0.022-0.097-0.043-0.016-0.014-0.029-0.031-0.037-0.051s-0.013-0.040-0.012-0.061c0-0.047 0.013-0.092 0.038-0.132 0.052-0.084 0.145-0.137 0.211-0.22 0.033-0.046 0.055-0.098 0.065-0.154s0.006-0.113-0.010-0.166c-0.016-0.059-0.047-0.112-0.089-0.156-0.048-0.042-0.102-0.077-0.161-0.102-0.066-0.027-0.124-0.069-0.171-0.122-0.022-0.030-0.038-0.064-0.045-0.101-0.009-0.039-0.003-0.079 0.015-0.114 0.010-0.018 0.024-0.033 0.042-0.045l0.017 0.029c-0.055 0.034-0.098 0.084-0.124 0.143s-0.033 0.125-0.021 0.188c0.010 0.060 0.040 0.115 0.084 0.157 0.050 0.038 0.094 0.084 0.131 0.134 0.016 0.029 0.023 0.061 0.022 0.093s-0.010 0.064-0.025 0.092c-0.028 0.050-0.068 0.093-0.116 0.124-0.093 0.059-0.188 0.088-0.259 0.142-0.032 0.023-0.059 0.052-0.078 0.087s-0.031 0.072-0.035 0.112c-0.006 0.060 0.004 0.12 0.030 0.175 0.023 0.046 0.057 0.086 0.098 0.117l-0.010-0.004c-0.009-0.005-0.017-0.011-0.025-0.017-0.031-0.024-0.057-0.055-0.075-0.090-0.029-0.056-0.042-0.119-0.036-0.182 0.003-0.040 0.013-0.078 0.031-0.114 0.021-0.040 0.050-0.074 0.086-0.101 0.074-0.058 0.172-0.090 0.256-0.146 0.044-0.030 0.080-0.069 0.106-0.115 0.013-0.023 0.020-0.050 0.020-0.077s-0.007-0.053-0.020-0.077c-0.037-0.048-0.080-0.091-0.128-0.128-0.050-0.047-0.082-0.109-0.093-0.176-0.013-0.070-0.005-0.143 0.024-0.208s0.077-0.12 0.137-0.158l0.017 0.029c-0.013 0.008-0.023 0.020-0.031 0.033-0.012 0.030-0.015 0.062-0.010 0.094s0.018 0.061 0.039 0.086c0.044 0.049 0.098 0.087 0.159 0.113 0.062 0.027 0.119 0.064 0.169 0.109 0.046 0.047 0.079 0.106 0.096 0.17 0.017 0.058 0.019 0.12 0.008 0.18s-0.036 0.116-0.072 0.165c-0.072 0.088-0.164 0.139-0.212 0.215s-0.052 0.172 0.003 0.218c0.056 0.045 0.128 0.044 0.172 0.074 0.019 0.010 0.034 0.025 0.046 0.043s0.018 0.039 0.018 0.060c-0.001 0.011-0.004 0.021-0.011 0.030 0 0.006-0.003 0.008-0.003 0.008z"></path>
<path fill="#455a64" style="fill: var(--color8, #455a64)" d="M12.708 9.716h-7.364c-0.114 0-0.207 0.093-0.207 0.207v1.767c0 0.114 0.093 0.207 0.207 0.207h7.364c0.114 0 0.207-0.093 0.207-0.207v-1.767c0-0.114-0.093-0.207-0.207-0.207z"></path>
<path fill="#fff" style="fill: var(--color1, #fff)" d="M6.776 11.171c-0.059 0.073-0.138 0.127-0.227 0.155s-0.185 0.029-0.275 0.003c-0.090-0.026-0.17-0.079-0.23-0.15s-0.098-0.16-0.108-0.253c-0.010-0.093 0.007-0.187 0.051-0.27s0.11-0.152 0.192-0.197c0.082-0.045 0.176-0.065 0.269-0.057s0.182 0.044 0.255 0.102c0.049 0.039 0.089 0.087 0.119 0.142s0.049 0.114 0.056 0.176c0.007 0.062 0.001 0.124-0.016 0.184s-0.046 0.116-0.085 0.164z"></path>
<path fill="#ff725e" style="fill: var(--color10, #ff725e)" d="M6.673 10.713c-0.077 0.098-0.163 0.19-0.256 0.273-0.022 0.020-0.043 0.040-0.064 0.060l-0.012 0.011-0.012-0.011c-0.071-0.065-0.135-0.137-0.192-0.214 0.078 0.057 0.15 0.121 0.214 0.192h-0.023l0.064-0.064c0.086-0.090 0.179-0.173 0.28-0.247z"></path>
<path fill="#fff" style="fill: var(--color1, #fff)" d="M12.156 10.647c0 0.009-0.989 0.017-2.209 0.017s-2.208-0.008-2.208-0.017c0-0.009 0.988-0.017 2.208-0.017s2.209 0.007 2.209 0.017z"></path>
<path fill="#fff" style="fill: var(--color1, #fff)" d="M10.344 11.078c0 0.009-0.572 0.017-1.276 0.017s-1.28-0.008-1.28-0.017c0-0.009 0.572-0.017 1.28-0.017s1.276 0.010 1.276 0.017z"></path>
<path fill="#455a64" style="fill: var(--color8, #455a64)" d="M12.708 12.211h-7.364c-0.114 0-0.207 0.093-0.207 0.207v1.767c0 0.114 0.093 0.207 0.207 0.207h7.364c0.114 0 0.207-0.093 0.207-0.207v-1.767c0-0.114-0.093-0.207-0.207-0.207z"></path>
<path fill="#fff" style="fill: var(--color1, #fff)" d="M6.776 13.665c-0.059 0.073-0.138 0.127-0.227 0.155s-0.185 0.029-0.275 0.003c-0.090-0.026-0.17-0.079-0.23-0.15s-0.098-0.16-0.108-0.253c-0.010-0.093 0.007-0.187 0.051-0.27s0.11-0.151 0.192-0.197 0.176-0.065 0.269-0.057c0.093 0.008 0.182 0.044 0.255 0.102 0.098 0.079 0.161 0.193 0.174 0.318s-0.023 0.25-0.101 0.348z"></path>
<path fill="#ff725e" style="fill: var(--color10, #ff725e)" d="M6.673 13.208c-0.077 0.098-0.163 0.189-0.256 0.273l-0.064 0.064-0.012 0.011-0.012-0.012c-0.071-0.065-0.135-0.137-0.192-0.214 0.078 0.057 0.149 0.121 0.214 0.192h-0.023l0.064-0.064c0.085-0.091 0.179-0.175 0.28-0.25z"></path>
<path fill="#fff" style="fill: var(--color1, #fff)" d="M12.156 13.141c0 0.010-0.989 0.017-2.209 0.017s-2.208-0.007-2.208-0.017c0-0.010 0.988-0.017 2.208-0.017s2.209 0.008 2.209 0.017z"></path>
<path fill="#fff" style="fill: var(--color1, #fff)" d="M10.344 13.572c0 0.010-0.572 0.017-1.276 0.017s-1.28-0.007-1.28-0.017c0-0.010 0.572-0.017 1.28-0.017s1.276 0.008 1.276 0.017z"></path>
<path fill="#455a64" style="fill: var(--color8, #455a64)" d="M12.708 14.705h-7.364c-0.114 0-0.207 0.093-0.207 0.207v1.767c0 0.114 0.093 0.207 0.207 0.207h7.364c0.114 0 0.207-0.093 0.207-0.207v-1.767c0-0.114-0.093-0.207-0.207-0.207z"></path>
<path fill="#fff" style="fill: var(--color1, #fff)" d="M6.776 16.159c-0.059 0.073-0.138 0.127-0.227 0.155s-0.185 0.029-0.275 0.003c-0.090-0.026-0.17-0.079-0.23-0.15s-0.098-0.16-0.108-0.253c-0.010-0.093 0.007-0.187 0.051-0.27s0.11-0.151 0.192-0.197 0.176-0.065 0.269-0.057c0.093 0.008 0.182 0.044 0.255 0.102 0.049 0.039 0.089 0.087 0.119 0.142s0.049 0.115 0.056 0.176c0.007 0.062 0.001 0.124-0.016 0.184s-0.046 0.116-0.085 0.164z"></path>
<path fill="#ff725e" style="fill: var(--color10, #ff725e)" d="M6.673 15.702c-0.077 0.099-0.163 0.19-0.256 0.273l-0.064 0.060-0.012 0.012-0.012-0.012c-0.071-0.065-0.135-0.137-0.192-0.214 0.078 0.057 0.15 0.121 0.214 0.192h-0.023l0.064-0.064c0.086-0.090 0.179-0.173 0.28-0.247z"></path>
<path fill="#fff" style="fill: var(--color1, #fff)" d="M12.156 15.636c0 0.009-0.989 0.017-2.209 0.017s-2.208-0.008-2.208-0.017c0-0.009 0.988-0.017 2.208-0.017s2.209 0.008 2.209 0.017z"></path>
<path fill="#fff" style="fill: var(--color1, #fff)" d="M10.344 16.067c0 0.009-0.572 0.017-1.276 0.017s-1.28-0.008-1.28-0.017c0-0.009 0.572-0.017 1.28-0.017s1.276 0.008 1.276 0.017z"></path>
<path fill="#343434" style="fill: var(--color6, #343434)" d="M17.323 22.962l-0.122 5.288h-0.233l0.015-5.275 0.34-0.013z"></path>
<path fill="#343434" style="fill: var(--color6, #343434)" d="M18.166 22.903l1.134 5.347h0.26l-0.944-5.347h-0.45z"></path>
<path fill="#343434" style="fill: var(--color6, #343434)" d="M16.040 22.962l-1.255 5.288h-0.26l1.139-5.31 0.376 0.022z"></path>
<path fill="#343434" style="fill: var(--color6, #343434)" d="M19.638 17.148c0 0 1.437-0.082 1.294 1.581s-0.226 3.35-0.76 3.926c-0.534 0.576-5.916 0.596-6.367 0.124s0.863-0.452 1.109-0.452c0.246 0 1.766 0.143 2.259-1.152s0.37-4.109 2.465-4.028z"></path>
<path fill="#455a64" style="fill: var(--color8, #455a64)" d="M19.731 17.152c0 0 1.099 0.225 0.996 1.375s-0.39 3.164-0.925 3.677c-0.534 0.513-2.624 0.625-3.759 0.555-1.315-0.083-2.144-0.333-2.144-0.333s-0.24 0.154-0.168 0.256c0.072 0.102 0.714 0.499 3.821 0.433s2.892-0.525 3.020-1.024 0.4-3.171 0.362-3.757c-0.038-0.587-0.333-1.082-1.204-1.181z"></path>
<path fill="#343434" style="fill: var(--color6, #343434)" d="M16.643 12.271c0.173-0.060 0.361-0.061 0.534-0.003s0.323 0.171 0.426 0.323c0.139 0.215 0.172 0.485 0.313 0.698 0.1 0.15 0.249 0.261 0.372 0.394s0.223 0.309 0.192 0.488c-0.029 0.167-0.171 0.316-0.143 0.483 0.027 0.157 0.192 0.259 0.227 0.415 0.038 0.184-0.139 0.355-0.324 0.384s-0.37-0.043-0.545-0.112c-0.175-0.069-0.36-0.138-0.545-0.105-0.214 0.039-0.379 0.207-0.566 0.32-0.198 0.113-0.424 0.166-0.651 0.152s-0.446-0.093-0.629-0.229c-0.141-0.108-0.264-0.276-0.23-0.448 0.032-0.163 0.192-0.275 0.234-0.435 0.068-0.237-0.128-0.479-0.099-0.724 0.040-0.329 0.448-0.479 0.594-0.776 0.071-0.143 0.077-0.309 0.14-0.456s0.226-0.277 0.372-0.214z"></path>
<path fill="#ffbe9d" style="fill: var(--color11, #ffbe9d)" d="M16.505 15.265c0.021-0.117-0.017-0.61-0.017-0.61s-0.436-0.055-0.456-0.501c-0.019-0.446 0.026-1.472 0.026-1.472l0.804-0.384 0.704 0.8 0.013 2.163-1.075 0.004z"></path>
<path fill="#343434" style="fill: var(--color6, #343434)" d="M16.115 13.468c0 0.011 0.003 0.022 0.010 0.031s0.015 0.016 0.025 0.020c0.010 0.004 0.021 0.005 0.032 0.003s0.021-0.007 0.028-0.015c0.008-0.008 0.013-0.018 0.015-0.028s0.001-0.022-0.003-0.032c-0.004-0.010-0.011-0.019-0.020-0.025s-0.020-0.010-0.030-0.010c-0.015 0-0.029 0.006-0.040 0.016s-0.017 0.025-0.017 0.040z"></path>
<path fill="#343434" style="fill: var(--color6, #343434)" d="M16.079 13.368c0.007 0.008 0.049-0.028 0.109-0.030s0.104 0.028 0.111 0.020c0.006-0.008-0.004-0.017-0.024-0.031-0.026-0.018-0.057-0.027-0.089-0.026s-0.062 0.013-0.086 0.034c-0.019 0.015-0.024 0.030-0.021 0.033z"></path>
<path fill="#343434" style="fill: var(--color6, #343434)" d="M16.768 13.468c-0.001 0.008-0 0.016 0.002 0.023s0.006 0.014 0.012 0.020c0.005 0.006 0.012 0.010 0.019 0.014s0.015 0.005 0.023 0.005 0.016-0.002 0.023-0.005c0.007-0.003 0.014-0.008 0.019-0.014s0.009-0.013 0.012-0.020c0.002-0.007 0.003-0.015 0.002-0.023 0.001-0.008 0-0.016-0.002-0.023s-0.006-0.014-0.012-0.020c-0.005-0.006-0.012-0.010-0.019-0.014s-0.015-0.005-0.023-0.005-0.016 0.002-0.023 0.005c-0.007 0.003-0.014 0.008-0.019 0.014s-0.009 0.013-0.012 0.020c-0.002 0.007-0.003 0.015-0.002 0.023z"></path>
<path fill="#343434" style="fill: var(--color6, #343434)" d="M16.742 13.38c0.007 0.008 0.049-0.028 0.109-0.030s0.104 0.028 0.111 0.020c0.006-0.008-0.004-0.017-0.024-0.031-0.026-0.018-0.057-0.027-0.088-0.026s-0.062 0.013-0.086 0.033c-0.018 0.016-0.024 0.030-0.021 0.034z"></path>
<path fill="#343434" style="fill: var(--color6, #343434)" d="M16.518 13.894c-0.032-0.009-0.064-0.014-0.097-0.015-0.015 0-0.030-0.004-0.033-0.015-0.001-0.017 0.002-0.034 0.010-0.049 0.013-0.040 0.028-0.082 0.043-0.128 0.040-0.108 0.072-0.218 0.097-0.33-0.048 0.103-0.089 0.21-0.121 0.32-0.014 0.045-0.028 0.087-0.042 0.128-0.009 0.020-0.011 0.043-0.006 0.064 0.002 0.006 0.005 0.011 0.010 0.015s0.010 0.007 0.016 0.008c0.008 0.001 0.017 0.001 0.026 0 0.033 0.005 0.066 0.006 0.099 0.002z"></path>
<path fill="#eb996e" style="fill: var(--color12, #eb996e)" d="M16.488 14.656c0.207-0.007 0.407-0.073 0.576-0.192 0 0-0.136 0.325-0.571 0.299l-0.005-0.107z"></path>
<path fill="#eb996e" style="fill: var(--color12, #eb996e)" d="M16.54 14.052c0.004-0.019 0.012-0.037 0.024-0.051s0.028-0.027 0.045-0.034c0.012-0.006 0.025-0.008 0.039-0.008s0.027 0.003 0.039 0.008c0.012 0.006 0.021 0.015 0.028 0.026s0.009 0.025 0.008 0.038c-0.004 0.015-0.012 0.028-0.023 0.039s-0.026 0.017-0.041 0.019c-0.030 0.004-0.060 0.002-0.089-0.006-0.008-0.001-0.016-0.004-0.023-0.008-0.003-0.002-0.006-0.005-0.008-0.009s-0.002-0.008-0.002-0.012z"></path>
<path fill="#343434" style="fill: var(--color6, #343434)" d="M16.688 13.892c0.004 0 0.011 0.016 0.009 0.045-0.004 0.039-0.021 0.075-0.049 0.101s-0.065 0.042-0.103 0.043c-0.029 0-0.046-0.008-0.045-0.012s0.070-0.004 0.125-0.056c0.055-0.052 0.054-0.122 0.063-0.122z"></path>
<path fill="#343434" style="fill: var(--color6, #343434)" d="M16.022 12.631c0.016 0.129 0.079 0.248 0.176 0.335s0.223 0.134 0.353 0.135l-0.121-0.266c0.108 0.125 0.219 0.256 0.367 0.328s0.34 0.083 0.466-0.024c0.041 0.109 0.040 0.23 0.078 0.34s0.128 0.566 0.241 0.548c0.113-0.018 0.181-0.474 0.208-0.576 0.032-0.145 0.030-0.295-0.006-0.439s-0.106-0.277-0.203-0.389c-0.115-0.134-0.259-0.239-0.421-0.307s-0.338-0.098-0.514-0.087c-0.157 0.007-0.308 0.060-0.434 0.153-0.108 0.086-0.183 0.206-0.213 0.341z"></path>
<path fill="#343434" style="fill: var(--color6, #343434)" d="M15.424 14.641c-0.011-0.001-0.021-0.003-0.031-0.007-0.028-0.009-0.056-0.020-0.082-0.035-0.098-0.052-0.179-0.131-0.233-0.228-0.042-0.071-0.068-0.151-0.075-0.234s0.004-0.166 0.034-0.243c0.035-0.092 0.091-0.174 0.163-0.239 0.078-0.071 0.173-0.119 0.276-0.14 0.048-0.007 0.093-0.028 0.128-0.061 0.030-0.036 0.047-0.081 0.049-0.128 0.008-0.094-0.029-0.186-0.040-0.278-0.011-0.089 0.007-0.179 0.052-0.256 0.039-0.067 0.097-0.122 0.166-0.157 0.064-0.033 0.121-0.054 0.17-0.076 0.043-0.017 0.084-0.038 0.123-0.064 0.032-0.023 0.060-0.051 0.084-0.082-0.004 0.010-0.009 0.019-0.015 0.028-0.017 0.025-0.039 0.047-0.064 0.064-0.038 0.028-0.079 0.052-0.123 0.071-0.049 0.023-0.108 0.046-0.166 0.079-0.064 0.035-0.117 0.087-0.153 0.151-0.041 0.072-0.058 0.157-0.046 0.239 0.010 0.088 0.049 0.179 0.042 0.284-0.002 0.055-0.022 0.107-0.058 0.148-0.040 0.038-0.091 0.063-0.145 0.071-0.094 0.020-0.182 0.063-0.255 0.126s-0.13 0.142-0.164 0.232c-0.028 0.073-0.040 0.152-0.034 0.231s0.029 0.155 0.067 0.224c0.051 0.094 0.127 0.173 0.219 0.228 0.068 0.037 0.11 0.048 0.11 0.051z"></path>
<path fill="#343434" style="fill: var(--color6, #343434)" d="M18.321 15.227c0 0 0.038-0.026 0.104-0.073 0.095-0.063 0.171-0.152 0.219-0.256 0.029-0.072 0.034-0.152 0.013-0.227-0.012-0.041-0.034-0.078-0.064-0.107-0.035-0.030-0.073-0.056-0.114-0.077-0.047-0.025-0.087-0.063-0.116-0.108s-0.045-0.098-0.047-0.151c-0.004-0.116 0.067-0.212 0.093-0.315 0.022-0.104 0.005-0.212-0.048-0.303-0.049-0.087-0.114-0.165-0.192-0.227-0.147-0.123-0.3-0.213-0.405-0.32-0.087-0.080-0.152-0.18-0.188-0.293-0.009-0.031-0.014-0.062-0.015-0.094-0.002-0.011-0.002-0.022 0-0.033 0.005 0.042 0.014 0.083 0.026 0.124 0.040 0.108 0.106 0.204 0.192 0.28 0.105 0.101 0.256 0.187 0.408 0.312 0.081 0.065 0.148 0.145 0.199 0.235 0.057 0.099 0.076 0.215 0.052 0.327-0.029 0.112-0.098 0.204-0.093 0.306 0.002 0.050 0.017 0.098 0.043 0.14s0.064 0.076 0.108 0.099c0.043 0.022 0.083 0.050 0.12 0.082 0.033 0.034 0.057 0.075 0.069 0.12 0.021 0.081 0.015 0.166-0.017 0.243-0.027 0.062-0.066 0.118-0.116 0.164-0.037 0.035-0.077 0.066-0.12 0.094-0.035 0.022-0.064 0.038-0.081 0.048-0.009 0.005-0.019 0.009-0.029 0.011z"></path>
<path fill="#343434" style="fill: var(--color6, #343434)" d="M16.007 13.165c0.062-0.051 0.105-0.121 0.124-0.2s0.028-0.157 0.029-0.237c0-0.023 0-0.053-0.024-0.059s-0.040 0.016-0.050 0.036c-0.078 0.148-0.106 0.318-0.079 0.483l0.014-0.013z"></path>
<path fill="#5cbefe" style="fill: var(--color13, #5cbefe)" d="M14.89 27.933l-0.012-0.576 1.078-0.029 0.026 0.842-0.064 0.006c-0.297 0.024-1.512 0.104-1.712 0.049-0.226-0.061 0.684-0.291 0.684-0.291z"></path>
<path fill="#fff" style="fill: var(--color1, #fff)" opacity="0.5" d="M15.591 28.173c0.013-0.092 0.060-0.175 0.132-0.234 0.069-0.059 0.159-0.089 0.25-0.085l0.008 0.301-0.39 0.018z"></path>
<path fill="#fff" style="fill: var(--color1, #fff)" opacity="0.4" d="M14.446 28.062c0 0-0.32 0.101-0.277 0.153s1.272 0.018 1.813-0.045v-0.024l-1.436 0.052c0 0-0.038-0.136-0.1-0.136z"></path>
<path fill="#343434" style="fill: var(--color6, #343434)" d="M16 28.145h-0.019l-0.053 0.004-0.196 0.014c-0.165 0.010-0.394 0.022-0.646 0.029s-0.481 0.008-0.647 0.007c0.166 0 0.394-0.004 0.647-0.012s0.481-0.017 0.646-0.025l0.196-0.010h0.053l0.019-0.008z"></path>
<path fill="#343434" style="fill: var(--color6, #343434)" d="M14.546 28.215c-0.010-0.032-0.023-0.063-0.040-0.093-0.020-0.027-0.043-0.052-0.069-0.073 0.033 0.013 0.061 0.036 0.080 0.066s0.029 0.064 0.028 0.1z"></path>
<path fill="#343434" style="fill: var(--color6, #343434)" d="M14.86 28.045c-0.003 0-0.019-0.016-0.035-0.040s-0.028-0.045-0.024-0.048c0.003-0.003 0.019 0.017 0.035 0.041 0.011 0.014 0.020 0.030 0.024 0.047z"></path>
<path fill="#343434" style="fill: var(--color6, #343434)" d="M14.945 27.996c0 0.003-0.020-0.008-0.038-0.024s-0.033-0.031-0.031-0.034c0.002-0.003 0.020 0.008 0.039 0.024s0.033 0.031 0.030 0.034z"></path>
<path fill="#343434" style="fill: var(--color6, #343434)" d="M14.998 27.893c-0.018 0.007-0.037 0.010-0.056 0.009-0.019 0.002-0.038 0.001-0.056-0.005 0.037-0.010 0.075-0.012 0.113-0.004z"></path>
<path fill="#343434" style="fill: var(--color6, #343434)" d="M15.014 27.821c-0.019 0.013-0.041 0.020-0.064 0.020-0.022 0.004-0.044 0.002-0.064-0.006 0.021-0.004 0.043-0.006 0.064-0.006 0.021-0.004 0.043-0.006 0.064-0.007z"></path>
<path fill="#343434" style="fill: var(--color6, #343434)" d="M14.82 27.952c-0.023 0.004-0.046 0.004-0.069 0-0.025-0.002-0.050-0.007-0.074-0.014-0.015-0.004-0.029-0.009-0.042-0.016-0.008-0.005-0.015-0.012-0.018-0.021-0.001-0.005-0.001-0.011 0.001-0.015s0.005-0.009 0.009-0.013c0.026-0.014 0.056-0.018 0.085-0.012s0.055 0.021 0.073 0.044c0.011 0.013 0.019 0.029 0.024 0.045 0.001 0.006 0.001 0.013 0 0.019-0.008-0.021-0.019-0.041-0.033-0.058-0.016-0.018-0.037-0.031-0.060-0.037-0.027-0.008-0.057-0.006-0.083 0.008-0.010 0.009-0.006 0.022 0.006 0.029s0.026 0.012 0.040 0.015c0.023 0.007 0.047 0.013 0.072 0.017 0.044 0.009 0.070 0.008 0.070 0.010z"></path>
<path fill="#343434" style="fill: var(--color6, #343434)" d="M14.803 27.956c-0.009-0.014-0.013-0.031-0.010-0.048 0.002-0.018 0.008-0.036 0.017-0.051 0.006-0.010 0.014-0.019 0.024-0.026s0.021-0.010 0.033-0.011c0.007 0.001 0.013 0.005 0.018 0.011s0.006 0.013 0.005 0.020c-0.002 0.011-0.005 0.022-0.011 0.031-0.009 0.015-0.020 0.030-0.032 0.042-0.010 0.013-0.023 0.023-0.038 0.029 0 0 0.013-0.013 0.032-0.035 0.010-0.013 0.020-0.027 0.028-0.042s0.015-0.042 0-0.044c-0.015-0.003-0.035 0.017-0.045 0.031-0.009 0.014-0.015 0.029-0.019 0.045s-0.003 0.031-0.002 0.047z"></path>
<path fill="#343434" style="fill: var(--color6, #343434)" d="M15.967 27.851c0 0-0.031 0-0.079 0.005-0.063 0.009-0.123 0.035-0.172 0.076s-0.085 0.096-0.104 0.157c-0.015 0.047-0.016 0.077-0.018 0.077s0-0.008 0-0.022c0.001-0.020 0.005-0.039 0.010-0.058 0.018-0.064 0.054-0.121 0.104-0.164s0.113-0.069 0.179-0.076c0.020-0.002 0.040-0.002 0.060 0 0.007 0 0.014 0.002 0.020 0.004z"></path>
<path fill="#343434" style="fill: var(--color6, #343434)" d="M15.843 27.405c0.010 0.073 0.015 0.147 0.015 0.221 0.005 0.074 0.005 0.148 0 0.221-0.009-0.073-0.015-0.147-0.015-0.221-0.004-0.074-0.004-0.148 0-0.222z"></path>
<path fill="#343434" style="fill: var(--color6, #343434)" d="M15.453 28.071c-0.051 0.014-0.104 0.021-0.157 0.020-0.053 0.004-0.106 0.002-0.158-0.008 0-0.004 0.071 0 0.157-0.005s0.157-0.011 0.157-0.007z"></path>
<path fill="#343434" style="fill: var(--color6, #343434)" d="M15.664 28.065c0 0-0.005 0.015-0.012 0.031s-0.010 0.031-0.014 0.031c-0.004 0-0.006-0.017 0-0.036s0.024-0.029 0.026-0.026z"></path>
<path fill="#343434" style="fill: var(--color6, #343434)" d="M15.744 27.964c0 0-0.004 0.013-0.015 0.025s-0.022 0.019-0.024 0.017c-0.003-0.003 0.004-0.013 0.015-0.026s0.019-0.019 0.024-0.016z"></path>
<path fill="#343434" style="fill: var(--color6, #343434)" d="M15.853 27.916c0 0.004-0.015 0.004-0.031 0.010s-0.027 0.015-0.029 0.013c-0.003-0.003 0.006-0.018 0.025-0.025s0.036-0.001 0.035 0.003z"></path>
<path fill="#343434" style="fill: var(--color6, #343434)" d="M15.936 27.892c0 0.003-0.004 0.009-0.013 0.013s-0.017 0.004-0.019 0c-0.001-0.004 0.004-0.009 0.013-0.013s0.019-0.003 0.019 0z"></path>
<path fill="#5cbefe" style="fill: var(--color13, #5cbefe)" d="M12.288 24.854l0.25-0.518 0.975 0.462-0.358 0.762-0.064-0.025c-0.276-0.112-1.395-0.591-1.549-0.731-0.17-0.156 0.746 0.050 0.746 0.050z"></path>
<path fill="#fff" style="fill: var(--color1, #fff)" opacity="0.5" d="M12.804 25.385c0.053-0.075 0.133-0.128 0.223-0.148 0.089-0.021 0.182-0.008 0.261 0.037l-0.128 0.273-0.356-0.161z"></path>
<path fill="#fff" style="fill: var(--color1, #fff)" opacity="0.4" d="M11.833 24.768c0 0-0.33-0.054-0.316 0.011s1.126 0.591 1.637 0.781l0.009-0.022-1.303-0.604c0 0 0.029-0.136-0.027-0.166z"></path>
<path fill="#343434" style="fill: var(--color6, #343434)" d="M13.178 25.544c-0.006-0.001-0.012-0.003-0.017-0.006l-0.050-0.020-0.183-0.076c-0.152-0.064-0.361-0.159-0.59-0.267s-0.433-0.21-0.58-0.286l-0.174-0.091-0.047-0.026-0.016-0.010 0.017 0.008 0.048 0.023 0.175 0.088c0.149 0.074 0.353 0.175 0.582 0.283s0.436 0.202 0.588 0.269l0.179 0.080 0.049 0.022 0.019 0.008z"></path>
<path fill="#343434" style="fill: var(--color6, #343434)" d="M11.853 24.95c0.006-0.033 0.008-0.066 0.007-0.1-0.006-0.033-0.015-0.065-0.028-0.097 0.025 0.026 0.039 0.060 0.041 0.095 0.006 0.035-0.001 0.071-0.020 0.101z"></path>
<path fill="#343434" style="fill: var(--color6, #343434)" d="M12.209 24.94c-0.004 0-0.010-0.023-0.013-0.052s-0.004-0.053 0-0.054c0.008 0.016 0.012 0.034 0.013 0.052 0.004 0.029 0.004 0.053 0 0.054z"></path>
<path fill="#343434" style="fill: var(--color6, #343434)" d="M12.308 24.936c-0.003 0-0.013-0.016-0.024-0.039s-0.015-0.043-0.011-0.044c0.004-0.001 0.013 0.016 0.023 0.039s0.015 0.043 0.012 0.044z"></path>
<path fill="#343434" style="fill: var(--color6, #343434)" d="M12.401 24.867c-0.019-0.002-0.037-0.008-0.054-0.017-0.018-0.006-0.035-0.016-0.049-0.029 0.019 0.002 0.037 0.008 0.054 0.017 0.029 0.013 0.051 0.026 0.049 0.029z"></path>
<path fill="#343434" style="fill: var(--color6, #343434)" d="M12.449 24.811c-0.022 0.001-0.044-0.003-0.065-0.011s-0.039-0.020-0.055-0.035c0.040 0.015 0.080 0.031 0.12 0.046z"></path>
<path fill="#343434" style="fill: var(--color6, #343434)" d="M12.216 24.84c-0.023-0.006-0.045-0.016-0.064-0.030-0.021-0.014-0.042-0.029-0.060-0.046-0.011-0.010-0.021-0.022-0.031-0.034-0.005-0.008-0.007-0.017-0.006-0.027 0.001-0.005 0.004-0.010 0.007-0.014s0.009-0.006 0.014-0.007c0.019-0 0.038 0.004 0.055 0.011s0.033 0.020 0.045 0.034c0.012 0.015 0.021 0.032 0.026 0.050s0.005 0.038 0.002 0.056c0 0.012-0.006 0.018-0.006 0.017 0.003-0.021 0.002-0.043-0.003-0.064-0.006-0.023-0.019-0.044-0.037-0.060-0.010-0.010-0.022-0.018-0.035-0.023s-0.027-0.008-0.041-0.007c-0.013 0-0.015 0.016-0.007 0.028s0.017 0.022 0.028 0.032c0.018 0.017 0.037 0.033 0.057 0.047 0.035 0.022 0.059 0.033 0.058 0.035z"></path>
<path fill="#343434" style="fill: var(--color6, #343434)" d="M12.199 24.835c-0.002-0.017 0.003-0.034 0.013-0.047 0.010-0.015 0.023-0.028 0.039-0.038 0.010-0.007 0.021-0.011 0.033-0.012s0.024 0.001 0.035 0.005c0.006 0.004 0.009 0.011 0.011 0.018s-0.001 0.014-0.005 0.020c-0.006 0.009-0.014 0.017-0.024 0.022-0.015 0.010-0.031 0.018-0.048 0.024-0.015 0.006-0.031 0.009-0.047 0.008 0 0 0.017-0.005 0.044-0.017 0.016-0.007 0.030-0.015 0.044-0.025s0.032-0.030 0.017-0.040c-0.009-0.003-0.018-0.004-0.028-0.002s-0.018 0.004-0.026 0.009c-0.014 0.008-0.027 0.019-0.037 0.032-0.008 0.013-0.015 0.027-0.020 0.042z"></path>
<path fill="#343434" style="fill: var(--color6, #343434)" d="M13.284 25.268c0 0-0.026-0.016-0.073-0.031-0.060-0.021-0.125-0.024-0.188-0.010s-0.119 0.047-0.164 0.092c-0.035 0.035-0.050 0.064-0.052 0.061 0.002-0.007 0.005-0.014 0.010-0.020 0.010-0.017 0.022-0.033 0.035-0.047 0.045-0.049 0.103-0.083 0.168-0.098s0.132-0.011 0.194 0.013c0.018 0.007 0.036 0.016 0.052 0.027 0.012 0.008 0.018 0.013 0.017 0.013z"></path>
<path fill="#343434" style="fill: var(--color6, #343434)" d="M13.376 24.815c-0.025 0.070-0.054 0.138-0.086 0.204-0.029 0.068-0.061 0.134-0.098 0.198 0.025-0.070 0.054-0.138 0.086-0.204 0.028-0.068 0.061-0.134 0.098-0.198z"></path>
<path fill="#343434" style="fill: var(--color6, #343434)" d="M12.726 25.232c-0.052-0.011-0.102-0.029-0.148-0.053-0.049-0.020-0.095-0.047-0.138-0.079 0-0.003 0.064 0.031 0.143 0.067s0.145 0.061 0.143 0.065z"></path>
<path fill="#343434" style="fill: var(--color6, #343434)" d="M12.918 25.322c0 0.004-0.012 0.011-0.025 0.022s-0.023 0.023-0.026 0.021c-0.003-0.002 0-0.018 0.018-0.031s0.033-0.016 0.033-0.013z"></path>
<path fill="#343434" style="fill: var(--color6, #343434)" d="M13.032 25.267c0 0.004-0.010 0.011-0.025 0.016s-0.028 0.008-0.029 0.004c-0.001-0.004 0.010-0.010 0.025-0.016s0.028-0.007 0.029-0.004z"></path>
<path fill="#343434" style="fill: var(--color6, #343434)" d="M13.155 25.275c0 0-0.015-0.004-0.032-0.005s-0.031 0-0.032 0c-0.001 0 0.013-0.013 0.034-0.010s0.033 0.013 0.030 0.015z"></path>
<path fill="#343434" style="fill: var(--color6, #343434)" d="M13.237 25.29c0 0-0.008 0.006-0.018 0.005s-0.017-0.004-0.017-0.008c0.001-0.003 0.008-0.006 0.017-0.006s0.017 0.005 0.017 0.008z"></path>
<path fill="#5cbefe" style="fill: var(--color13, #5cbefe)" d="M19.392 17.322l-0.229-1.152c-0.166-0.938-1.485-1.002-1.485-1.002l-1.038-0.017c0 0-0.768-0.103-1.241 0.431-0.49 0.552-1.092 1.206-1.092 1.206l0.46 1.156 1.088-0.896c-0.091 0.16-0.141 0.339-0.146 0.523 0 0.307 0.32 0.448 0.32 0.448l0.099 0.93-0.32 1.506 3.38-0.136c-0.057-0.505-0.228-0.991-0.5-1.42l0.064-1.576h0.64z"></path>
<path fill="#343434" style="fill: var(--color6, #343434)" d="M17.944 16.034c0.009 0.024 0.015 0.048 0.018 0.074 0.011 0.054 0.024 0.122 0.040 0.202 0.035 0.178 0.079 0.41 0.128 0.666s0.092 0.497 0.119 0.668c0.014 0.086 0.024 0.156 0.029 0.204 0.005 0.025 0.006 0.050 0.005 0.075-0.008-0.024-0.014-0.049-0.017-0.074-0.011-0.054-0.024-0.122-0.040-0.202-0.035-0.178-0.079-0.41-0.128-0.666s-0.092-0.496-0.119-0.668c-0.014-0.086-0.024-0.155-0.029-0.204-0.004-0.025-0.006-0.050-0.005-0.076z"></path>
<path fill="#343434" style="fill: var(--color6, #343434)" d="M19.412 17.262c-0.208 0.018-0.416 0.024-0.625 0.019-0.208 0.006-0.417 0.001-0.625-0.015 0.208-0.017 0.416-0.024 0.625-0.019 0.208-0.006 0.417-0.001 0.625 0.014z"></path>
<path fill="#ffbe9d" style="fill: var(--color11, #ffbe9d)" d="M19.54 18.304c-0.064-0.552-0.156-1.024-0.156-1.024h-1.197c0 0 0.148 0.704 0.116 0.864-0.029 0.141-2.348 0.235-2.952 0.244-0.036-0.027-0.088 0.019-0.135-0.022-0.041-0.037-0.076-0.080-0.103-0.128-0.036-0.058-0.063-0.121-0.083-0.187-0.002-0.012-0.008-0.024-0.017-0.033s-0.020-0.015-0.032-0.018c-0.012-0.003-0.025-0.002-0.037 0.002s-0.022 0.012-0.029 0.022c-0.024 0.052 0.003 0.224 0.118 0.39s-0.186 0.080-0.296 0.051c-0.11-0.029-0.456-0.104-0.491-0.077-0.052 0.040-0.020 0.105 0.091 0.132s0.438 0.128 0.42 0.192c-0.018 0.064-0.576-0.1-0.576-0.1s-0.114-0.053-0.137 0.014c-0.041 0.122 0.565 0.244 0.623 0.256 0.040 0.008 0.023 0.072-0.020 0.064s-0.554-0.171-0.597-0.047c-0.033 0.095 0.498 0.106 0.586 0.2s-0.402-0.051-0.43 0.041c-0.010 0.035 0.192 0.050 0.486 0.092 0.301 0.029 0.603 0.039 0.906 0.032 0.679 0.037 3.080 0.087 3.593 0.051 0.596-0.045 0.372-0.818 0.349-1.010z"></path>
<path fill="#343434" style="fill: var(--color6, #343434)" d="M15.738 17.355c0.009-0.053 0.023-0.105 0.041-0.155 0.014-0.048 0.031-0.104 0.053-0.166 0.011-0.031 0.023-0.064 0.036-0.097 0.008-0.018 0.017-0.033 0.022-0.048 0.005-0.016 0.007-0.033 0.006-0.050-0.003-0.036-0.008-0.071-0.016-0.106-0.006-0.035-0.013-0.068-0.019-0.1-0.010-0.064-0.020-0.119-0.029-0.172-0.012-0.052-0.018-0.106-0.019-0.159 0.020 0.050 0.034 0.102 0.042 0.155 0.012 0.052 0.024 0.109 0.036 0.17l0.021 0.101c0.009 0.037 0.014 0.074 0.017 0.111 0.001 0.021-0.002 0.041-0.008 0.061-0.007 0.017-0.014 0.034-0.023 0.051-0.013 0.032-0.026 0.064-0.038 0.095-0.021 0.058-0.042 0.113-0.060 0.163-0.015 0.052-0.036 0.101-0.063 0.148z"></path>
<path fill="#343434" style="fill: var(--color6, #343434)" d="M17.133 12.992c0.092 0.119 0.192 0.256 0.172 0.405-0.016 0.128-0.12 0.246-0.103 0.377 0.021 0.15 0.192 0.249 0.204 0.401 0.007 0.128-0.101 0.223-0.177 0.32-0.056 0.072-0.097 0.154-0.121 0.242s-0.031 0.18-0.019 0.27c0.013 0.090 0.045 0.176 0.096 0.251s0.118 0.138 0.196 0.184c0.080 0.044 0.169 0.067 0.26 0.066s0.18-0.025 0.259-0.071c0.139-0.097 0.24-0.239 0.286-0.401 0.072-0.206 0.091-0.448-0.031-0.63-0.050-0.073-0.122-0.136-0.138-0.223-0.020-0.11 0.058-0.214 0.070-0.325 0.017-0.149-0.086-0.285-0.2-0.384s-0.248-0.177-0.333-0.3z"></path>
<path fill="#343434" style="fill: var(--color6, #343434)" opacity="0.3" d="M17.984 16.346c0.042 0.64 0.064 1.232 0.079 1.874 0.085-0.004 0.168-0.030 0.241-0.076 0.033-0.274-0.175-1.108-0.32-1.798z"></path>
<path fill="#fafafa" style="fill: var(--color4, #fafafa)" d="M16.424 16.051c-0.009-0.049-0.004-0.099 0.015-0.145 0.022-0.078 0.056-0.135 0.064-0.131-0.003 0.048-0.014 0.095-0.032 0.14-0.008 0.048-0.024 0.094-0.047 0.136z"></path>
<path fill="#fafafa" style="fill: var(--color4, #fafafa)" d="M15.744 16.049c-0.005 0.008-0.051-0.015-0.095-0.057s-0.070-0.086-0.064-0.092c0.006-0.005 0.043 0.028 0.085 0.067s0.078 0.074 0.074 0.081z"></path>
<path fill="#fafafa" style="fill: var(--color4, #fafafa)" d="M15.094 16.58c0 0-0.006-0.006-0.010-0.017h0.015c0.010 0.052 0.010 0.106 0 0.158-0.004 0.060-0.026 0.117-0.064 0.163 0.008-0.057 0.019-0.113 0.034-0.169 0.012-0.064 0.014-0.124 0.018-0.152h0.015c-0.004 0.013-0.005 0.016-0.008 0.017z"></path>
<path fill="#fafafa" style="fill: var(--color4, #fafafa)" d="M15.066 17.244c-0.049-0.002-0.097-0.015-0.14-0.037-0.074-0.029-0.132-0.059-0.128-0.068 0.049 0.002 0.097 0.015 0.141 0.037 0.073 0.029 0.131 0.059 0.127 0.068z"></path>
<path fill="#fafafa" style="fill: var(--color4, #fafafa)" d="M15.616 16.876c-0.009 0-0.008-0.058 0.013-0.124s0.051-0.113 0.059-0.109-0.008 0.056-0.028 0.119c-0.020 0.063-0.038 0.115-0.045 0.114z"></path>
<path fill="#fafafa" style="fill: var(--color4, #fafafa)" d="M16.192 15.42c0 0.009-0.048 0.019-0.108 0.022s-0.109 0-0.109-0.012c-0.001-0.011 0.048-0.019 0.108-0.022s0.109 0.002 0.109 0.012z"></path>
<path fill="#fafafa" style="fill: var(--color4, #fafafa)" d="M16.309 16.669c-0.006 0.006-0.058-0.032-0.092-0.102-0.026-0.040-0.035-0.089-0.026-0.136 0.010 0 0.023 0.057 0.055 0.121s0.070 0.11 0.063 0.117z"></path>
<path fill="#fafafa" style="fill: var(--color4, #fafafa)" d="M17.446 16.401c0.006 0.006-0.034 0.058-0.095 0.11s-0.118 0.084-0.123 0.077 0.042-0.051 0.101-0.102c0.060-0.051 0.11-0.091 0.116-0.084z"></path>
<path fill="#fafafa" style="fill: var(--color4, #fafafa)" d="M16.884 16.225c0.005 0.008-0.030 0.043-0.079 0.079s-0.094 0.061-0.099 0.053c-0.005-0.008 0.030-0.043 0.079-0.079s0.093-0.060 0.099-0.053z"></path>
<path fill="#fafafa" style="fill: var(--color4, #fafafa)" d="M17.16 15.765c-0.052-0.011-0.099-0.037-0.136-0.076-0.064-0.057-0.103-0.118-0.095-0.123s0.054 0.044 0.117 0.098c0.063 0.054 0.119 0.093 0.115 0.101z"></path>
<path fill="#fafafa" style="fill: var(--color4, #fafafa)" d="M17.807 15.586c0.005 0.007-0.031 0.044-0.081 0.082s-0.096 0.064-0.102 0.056c-0.006-0.008 0.031-0.044 0.081-0.083s0.096-0.063 0.102-0.056z"></path>
<path fill="#fafafa" style="fill: var(--color4, #fafafa)" d="M18.347 15.842c-0.001-0.046 0.006-0.092 0.020-0.136 0.015-0.074 0.024-0.134 0.034-0.134 0.014 0.046 0.014 0.095 0 0.14-0.016 0.077-0.046 0.133-0.054 0.13z"></path>
<path fill="#fafafa" style="fill: var(--color4, #fafafa)" d="M18.442 16.458c-0.006 0.006-0.064-0.037-0.128-0.097s-0.113-0.114-0.107-0.12c0.006-0.006 0.064 0.036 0.128 0.096s0.113 0.114 0.107 0.121z"></path>
<path fill="#fafafa" style="fill: var(--color4, #fafafa)" d="M18.88 16.199c-0.008-0.004 0.008-0.064 0.037-0.128s0.060-0.12 0.068-0.116c-0.002 0.045-0.015 0.089-0.037 0.128-0.029 0.068-0.060 0.12-0.068 0.116z"></path>
<path fill="#fafafa" style="fill: var(--color4, #fafafa)" d="M18.902 16.94c0.011-0.054 0.033-0.104 0.064-0.149 0.022-0.050 0.053-0.095 0.092-0.133-0.011 0.053-0.033 0.104-0.064 0.149-0.021 0.050-0.053 0.095-0.092 0.133z"></path>
<path fill="#fafafa" style="fill: var(--color4, #fafafa)" d="M18.471 17.053c-0.008 0.006-0.051-0.040-0.099-0.103s-0.079-0.117-0.072-0.123c0.007-0.006 0.052 0.040 0.099 0.103s0.079 0.117 0.072 0.123z"></path>
<path fill="#fafafa" style="fill: var(--color4, #fafafa)" d="M17.657 17.37c0.015-0.067 0.045-0.13 0.088-0.184 0.033-0.060 0.080-0.112 0.136-0.152-0.030 0.060-0.066 0.117-0.108 0.17-0.033 0.059-0.072 0.115-0.116 0.166z"></path>
<path fill="#fafafa" style="fill: var(--color4, #fafafa)" d="M17.072 17.311c-0.039-0.043-0.070-0.093-0.090-0.148-0.030-0.050-0.051-0.105-0.061-0.163 0.070 0.093 0.121 0.198 0.151 0.31z"></path>
<path fill="#fafafa" style="fill: var(--color4, #fafafa)" d="M16.335 17.139c-0.037 0.053-0.082 0.1-0.134 0.139-0.045 0.047-0.098 0.085-0.156 0.115-0.006-0.007 0.054-0.069 0.134-0.14 0.045-0.047 0.098-0.085 0.156-0.114z"></path>
<path fill="#fafafa" style="fill: var(--color4, #fafafa)" d="M16.615 17.939c-0.008 0.006-0.060-0.054-0.128-0.123s-0.128-0.123-0.122-0.128c0.057 0.022 0.107 0.058 0.147 0.104 0.046 0.040 0.081 0.090 0.103 0.147z"></path>
<path fill="#fafafa" style="fill: var(--color4, #fafafa)" d="M17.131 17.964c0.004-0.059 0.023-0.115 0.057-0.163 0.048-0.083 0.106-0.137 0.113-0.128-0.023 0.051-0.051 0.1-0.084 0.145-0.023 0.051-0.052 0.1-0.085 0.146z"></path>
<path fill="#fafafa" style="fill: var(--color4, #fafafa)" d="M17.856 18.048c-0.059-0.028-0.112-0.065-0.158-0.111-0.053-0.037-0.1-0.084-0.138-0.136 0.059 0.028 0.113 0.065 0.159 0.111 0.053 0.038 0.099 0.084 0.137 0.136z"></path>
<path fill="#fafafa" style="fill: var(--color4, #fafafa)" d="M17.792 16.142c-0.050-0.008-0.097-0.030-0.135-0.064-0.068-0.049-0.109-0.104-0.103-0.11s0.058 0.036 0.123 0.083 0.115 0.083 0.115 0.091z"></path>
<path fill="#fafafa" style="fill: var(--color4, #fafafa)" d="M16.744 19.422c0.004 0.009-0.048 0.036-0.106 0.079s-0.101 0.083-0.108 0.077c-0.007-0.006 0.026-0.059 0.088-0.104s0.123-0.061 0.125-0.052z"></path>
<path fill="#fafafa" style="fill: var(--color4, #fafafa)" d="M17.519 19.738c-0.056-0.086-0.092-0.184-0.106-0.286 0.056 0.087 0.092 0.184 0.106 0.286z"></path>
<path fill="#fafafa" style="fill: var(--color4, #fafafa)" d="M18.3 19.462c0.007 0.006-0.033 0.059-0.089 0.117s-0.106 0.1-0.113 0.094c-0.006-0.006 0.033-0.059 0.089-0.117s0.106-0.1 0.113-0.094z"></path>
<path fill="#fafafa" style="fill: var(--color4, #fafafa)" d="M18.88 19.883c-0.007 0.007-0.059-0.034-0.136-0.049s-0.14 0-0.143-0.008c0.021-0.015 0.046-0.026 0.072-0.030s0.053-0.002 0.078 0.006c0.084 0.017 0.133 0.076 0.129 0.081z"></path>
<path fill="#455a64" style="fill: var(--color8, #455a64)" d="M19.196 20.168c0 0-4.42-0.926-4.848-0.723s-2.401 5.080-2.401 5.080l1.589 0.684 1.709-4.145c0 0 3.094 1.13 3.635 1.016s0.316-1.912 0.316-1.912z"></path>
<path fill="#455a64" style="fill: var(--color8, #455a64)" d="M17.22 20.428c-0.067 0.022-2.624 1.074-2.804 1.411s0.262 5.948 0.262 5.948h1.454l-0.090-4.986 2.838-0.721-1.66-1.652z"></path>
<path fill="#343434" style="fill: var(--color6, #343434)" d="M18.895 22.093c-0.014-0.001-0.028-0.002-0.042-0.005l-0.119-0.021c-0.103-0.019-0.252-0.049-0.436-0.088-0.367-0.077-0.872-0.192-1.423-0.353-0.275-0.079-0.535-0.163-0.768-0.243s-0.444-0.161-0.616-0.235c-0.087-0.035-0.164-0.070-0.232-0.101s-0.128-0.057-0.173-0.081l-0.108-0.054c-0.013-0.006-0.026-0.013-0.037-0.021 0.014 0.004 0.027 0.009 0.040 0.015l0.111 0.049c0.047 0.022 0.106 0.047 0.175 0.076s0.147 0.064 0.234 0.096c0.173 0.071 0.384 0.146 0.618 0.228s0.494 0.161 0.768 0.24c0.55 0.158 1.053 0.278 1.419 0.362l0.551 0.125c0.013 0.003 0.026 0.007 0.039 0.012z"></path>
<path fill="#343434" style="fill: var(--color6, #343434)" d="M14.416 23.128c-0.007-0.027-0.012-0.056-0.013-0.084-0.006-0.061-0.015-0.138-0.024-0.23s-0.020-0.214-0.031-0.341c-0.020-0.14-0.020-0.283 0-0.423 0.028-0.142 0.103-0.27 0.212-0.365 0.087-0.077 0.185-0.141 0.291-0.188 0.070-0.032 0.142-0.060 0.216-0.085 0.026-0.011 0.054-0.019 0.082-0.024 0 0.006-0.113 0.046-0.287 0.128-0.102 0.048-0.197 0.112-0.28 0.188-0.103 0.092-0.173 0.214-0.2 0.349-0.018 0.137-0.018 0.277 0 0.414 0.010 0.128 0.018 0.243 0.025 0.342s0.010 0.17 0.013 0.231c0.003 0.029 0.002 0.059-0.002 0.088z"></path>
<path fill="#343434" style="fill: var(--color6, #343434)" d="M15.692 22.646c0.123 0.030 0.239 0.081 0.344 0.152-0.123-0.030-0.239-0.081-0.344-0.152z"></path>
<path fill="#343434" style="fill: var(--color6, #343434)" d="M15.82 22.492c0.041 0.053 0.080 0.107 0.116 0.164 0.064 0.088 0.132 0.148 0.128 0.156-0.063-0.030-0.116-0.078-0.153-0.136-0.047-0.051-0.079-0.115-0.091-0.184z"></path>
<path fill="#343434" style="fill: var(--color6, #343434)" d="M16.378 22.72c0 0-0.004 0.012-0.022 0.023-0.026 0.014-0.055 0.021-0.084 0.020-0.040-0.001-0.081-0-0.121 0.003-0.022 0.003-0.041 0.015-0.055 0.032s-0.020 0.039-0.018 0.061c0.005 0.13-0.001 0.26-0.018 0.388-0.016-0.129-0.022-0.26-0.015-0.39 0-0.030 0.010-0.059 0.028-0.083 0.019-0.021 0.045-0.035 0.073-0.038 0.043-0.002 0.086-0.001 0.128 0.004 0.036 0.003 0.072-0.004 0.105-0.019z"></path>
<path fill="#343434" style="fill: var(--color6, #343434)" opacity="0.3" d="M16.029 19.416l3.013 0.242-0.129-0.337-2.854-0.041-0.029 0.136z"></path>
<path fill="#343434" style="fill: var(--color6, #343434)" d="M24.183 18.755h-17.759v0.474h0.95l-0.49 9.007 0.27 0.015 0.491-9.022h15.57l0.417 9.015h0.271l-0.418-9.015h0.698v-0.474z"></path>
<path fill="#343434" style="fill: var(--color6, #343434)" d="M11.603 15.954l0.985 2.877h4.46l-0.033-0.148-1.803-0.056-0.831-2.675-2.778 0.002z"></path>
<path fill="#fff" style="fill: var(--color1, #fff)" d="M13.58 17.305c0.029 0.118-0.021 0.234-0.113 0.256s-0.192-0.051-0.22-0.17c-0.028-0.118 0.021-0.233 0.113-0.256s0.19 0.052 0.22 0.17z"></path>
</symbol>

<symbol id="plus" viewBox="0 0 32 32">
<path fill="none" stroke="#3ca9f0" style="stroke: var(--color1, #3ca9f0)" stroke-linejoin="round" stroke-linecap="round" stroke-miterlimit="4" stroke-width="2" d="M8 16h16"></path>
<path fill="none" stroke="#3ca9f0" style="stroke: var(--color1, #3ca9f0)" stroke-linejoin="round" stroke-linecap="round" stroke-miterlimit="4" stroke-width="2" d="M16 24v-16"></path>
</symbol>

<symbol id="check" viewBox="0 0 43 32">
<path stroke-linejoin="round" stroke-linecap="round" stroke-miterlimit="4" stroke-width="4" d="M2.667 15.097l12.43 12.43 24.904-24.86"></path>
</symbol>
</defs>
</svg>
